# xmcd CD database file
#
# Track frame offsets:
#	150
#	26162
#	52908
#	80043
#	105203
#	138708
#	151184
#	181907
#	207704
#	240788
#	268068
#
# Disc length: 3813 seconds
#
# Revision: 0
# Processed by: cddbd v1.5.2PL0 Copyright (c) Steve Scherf et al.
# Submitted via: CDex 1.51
#
DISCID=8e0ee30b
DTITLE=Rendell_Carr_Garrick - Reunion
DYEAR=2001
DGENRE=Jazz
TTITLE0=Linger with Lester
TTITLE1=Pause and Effect
TTITLE2=I can't believe that you're in love with me
TTITLE3=Penthouse Serenade
TTITLE4=Bernie's Tune
TTITLE5=If Only You Knew
TTITLE6=If I could be with you one hour tonight
TTITLE7=Afterthought
TTITLE8=Smoke Screen
TTITLE9=How Deep is The Ocean
TTITLE10=Struttin' with some Barbecue
EXTD=YEAR: 2001
EXTT0=
EXTT1=
EXTT2=
EXTT3=
EXTT4=
EXTT5=
EXTT6=
EXTT7=
EXTT8=
EXTT9=
EXTT10=
PLAYORDER=
